<svg height="512pt" viewBox="-5 0 512 512" width="512pt" xmlns="http://www.w3.org/2000/svg"><path d="m126.386719 54.625c1.894531 0 3.808593-.535156 5.503906-1.65625l.34375-.230469c4.613281-3.035156 5.890625-9.238281 2.855469-13.851562-3.039063-4.613281-9.242188-5.890625-13.855469-2.851563l-.375.246094c-4.605469 3.046875-5.871094 9.25-2.824219 13.859375 1.925782 2.910156 5.105469 4.484375 8.351563 4.484375zm0 0"/><path d="m438.761719 64.195312c-41.398438-41.394531-96.441407-64.195312-154.988281-64.195312h-42.085938c-30.390625 0-59.8125 6.105469-87.453125 18.144531-5.0625 2.207031-7.378906 8.101563-5.175781 13.164063 2.207031 5.0625 8.101562 7.382812 13.164062 5.171875 25.101563-10.933594 51.839844-16.480469 79.464844-16.480469h42.085938c23.382812 0 45.832031 4.0625 66.695312 11.5l-34.816406 31.363281c-3.421875 3.082031-4.296875 8.109375-2.109375 12.167969l14.609375 27.132812-23.917969 23.386719c-3.949219 3.859375-4.019531 10.191407-.15625 14.140625 1.957031 2.003906 4.554687 3.007813 7.148437 3.007813 2.519532 0 5.046876-.949219 6.992188-2.851563l29.296875-28.648437c3.1875-3.113281 3.925781-7.964844 1.8125-11.890625l-14.453125-26.84375 35.964844-32.398438c66.320312 32.367188 112.117187 100.492188 112.117187 179.117188 0 1.609375-.023437 3.210937-.058593 4.808594l-59.453126-9.855469c-1.355468-.226563-2.742187-.167969-4.078124.167969l-32.976563 8.308593-7.664063-26.402343c-.882812-3.03125-3.144531-5.472657-6.105468-6.578126-2.957032-1.105468-6.265625-.75-8.917969.964844l-28.949219 18.667969c-4.640625 2.992187-5.976562 9.179687-2.984375 13.824219 2.992188 4.640625 9.183594 5.976562 13.824219 2.980468l17.667969-11.390624 6.613281 22.773437c1.265625 4.359375 5.25 7.214844 9.597656 7.214844.808594 0 1.628906-.101563 2.449219-.304688l40.308594-10.15625 59.179687 9.808594c-6.554687 52.46875-33.597656 98.652344-72.84375 130.289063l-32.15625-34.222657c-1.890625-2.011719-4.527344-3.152343-7.289062-3.152343h-69.140625c-5.523438 0-10 4.476562-10 10 0 5.519531 4.476562 10 10 10h64.816406l27.460937 29.222656c-31.234374 20.363281-68.496093 32.21875-108.484374 32.21875h-8.691407c-5.523437 0-10 4.476562-10 10v26.066406c0 20.710938-16.851562 37.5625-37.5625 37.5625h-147.453125c-20.710937 0-37.5625-16.851562-37.5625-37.5625v-150.359375c7.667969 3.511719 16.011719 5.460937 24.75 5.460937 37.082032 0 67.25-34.769531 67.25-77.515624 0-42.742188-30.167968-77.515626-67.25-77.515626-5.03125 0-9.929687.660157-14.644531 1.871094 10.441406-31.503906 28.625-59.898437 53.195313-82.832031 4.035156-3.769531 4.253906-10.097656.484374-14.132813-3.769531-4.039062-10.097656-4.253906-14.132812-.488281-31.414062 29.320313-53.351562 66.761719-63.449219 108.277344-.128906.519531-.199219 1.035156-.238281 1.554687-17.207031 14.050782-28.46875 37.164063-28.46875 63.265626 0 22.996093 8.738281 43.671874 22.582031 57.878906-.046875.394531-.078125.792968-.078125 1.199218v163.335938c0 31.738281 25.824219 57.5625 57.5625 57.5625h147.453125c31.742188 0 57.566407-25.820312 57.566407-57.5625v-16.074219c58.054687-.335937 112.585937-23.101562 153.675781-64.191406 41.398437-41.398437 64.199219-96.441406 64.199219-154.988281 0-58.542969-22.800782-113.585938-64.199219-154.988282zm-418.761719 167.828126c0-31.714844 21.199219-57.515626 47.253906-57.515626 26.050782 0 47.25 25.800782 47.25 57.515626 0 31.714843-21.199218 57.515624-47.25 57.515624-26.058594 0-47.253906-25.800781-47.253906-57.515624zm0 0"/><path d="m305.648438 232.023438c0-42.742188-31.234376-77.515626-69.625-77.515626-38.390626 0-69.625 34.773438-69.625 77.515626 0 42.746093 31.234374 77.515624 69.625 77.515624 38.390624 0 69.625-34.769531 69.625-77.515624zm-69.625 57.515624c-27.363282 0-49.625-25.800781-49.625-57.515624 0-31.714844 22.261718-57.515626 49.625-57.515626 27.363281 0 49.625 25.800782 49.625 57.515626 0 31.714843-22.261719 57.515624-49.625 57.515624zm0 0"/><path d="m130.59375 285.355469c-.402344.578125-9.941406 14.355469-18.09375 31.042969-12.195312 24.96875-14.828125 42.945312-8.046875 54.964843 3.382813 5.988281 8.636719 9.671875 14.800781 10.375 7.105469.808594 13.929688-2.566406 19.003906-6.175781 4.019532 3.339844 9.421876 6.359375 15.820313 6.355469h.226563c5.265624-.058594 12.890624-2.238281 19.324218-12.308594 7.066406-11.0625 4.367188-28.550781-8.246094-53.464844-8.3125-16.414062-17.984374-30.246093-18.394531-30.828125-1.871093-2.667968-4.925781-4.253906-8.183593-4.253906-.007813 0-.015626 0-.023438 0-3.265625.007812-6.324219 1.609375-8.1875 4.292969zm8.230469 24.207031c2.773437 4.585938 5.902343 10.054688 8.804687 15.796875 13.328125 26.386719 9.320313 33.207031 9.144532 33.484375-1.507813 2.359375-2.527344 2.960938-2.75 3.070312-1.300782-.132812-4.675782-2.863281-6.707032-5.820312-1.703125-2.542969-4.488281-4.152344-7.539062-4.390625-.257813-.023437-.515625-.03125-.773438-.03125-2.777344 0-5.457031 1.164063-7.355468 3.21875-2.964844 3.207031-7.425782 6.355469-9.625 6.890625-.046876-.070312-.097657-.152344-.148438-.25-4.402344-7.792969 4.449219-30.835938 16.949219-51.96875zm0 0"/><path d="m255.660156 339.859375c-1.859375 1.859375-2.929687 4.441406-2.929687 7.070313 0 2.628906 1.070312 5.210937 2.929687 7.070312 1.871094 1.859375 4.441406 2.929688 7.070313 2.929688 2.628906 0 5.210937-1.070313 7.070312-2.929688 1.871094-1.859375 2.929688-4.441406 2.929688-7.070312 0-2.628907-1.058594-5.210938-2.929688-7.070313-1.859375-1.859375-4.429687-2.929687-7.070312-2.929687-2.628907 0-5.210938 1.070312-7.070313 2.929687zm0 0"/><path d="m216.632812 398.140625h-127.972656c-14.34375 0-26.015625 11.667969-26.015625 26.011719v20.417968c0 14.34375 11.671875 26.015626 26.015625 26.015626h127.972656c14.34375 0 26.011719-11.671876 26.011719-26.015626v-20.417968c.003907-14.34375-11.667969-26.011719-26.011719-26.011719zm-53.984374 20h20v32.445313h-20zm-20 32.445313h-20v-32.445313h20zm-60-6.015626v-20.417968c0-3.316406 2.695312-6.011719 6.011718-6.011719h13.988282v32.441406h-13.988282c-3.316406.003907-6.011718-2.695312-6.011718-6.011719zm140 0c0 3.316407-2.699219 6.015626-6.015626 6.015626h-13.984374v-32.445313h13.984374c3.316407 0 6.015626 2.695313 6.015626 6.011719zm0 0"/></svg>